<svg width="33" height="33" viewBox="0 0 33 33" fill="none" xmlns="http://www.w3.org/2000/svg">
<g clip-path="url(#clip0_145_13275)">
<path d="M23.5708 11.0337C22.3295 10.4699 21.0159 10.0691 19.6651 9.8418C19.4969 10.1379 19.2982 10.5377 19.1606 10.8487C17.724 10.6414 16.2636 10.6414 14.8269 10.8487C14.6747 10.5045 14.5038 10.1684 14.3148 9.8418C12.9618 10.0701 11.6459 10.4709 10.4014 11.0337C8.18755 14.146 7.19039 17.9203 7.58874 21.6801C9.03537 22.736 10.6592 23.5425 12.3887 24.064C12.7791 23.5448 13.1243 22.995 13.4206 22.4204C12.8591 22.22 12.3169 21.9723 11.8002 21.6801C11.9378 21.5838 12.0677 21.4802 12.1976 21.3765C13.6938 22.0746 15.3331 22.4371 16.9938 22.4371C18.6545 22.4371 20.2938 22.0746 21.7899 21.3765C21.9199 21.4802 22.0498 21.5838 22.1874 21.6801C21.6722 21.9752 21.1297 22.223 20.567 22.4204C20.8578 22.9964 21.2005 23.5464 21.5912 24.064C23.322 23.5455 24.9464 22.7388 26.3912 21.6801C26.7927 17.919 25.7924 14.1428 23.5708 11.0337ZM13.8409 19.5404C13.3596 19.5044 12.9121 19.2875 12.5936 18.9362C12.2751 18.5848 12.1111 18.1268 12.1365 17.6599C12.1791 17.3423 12.3154 17.0432 12.529 16.7987C12.7426 16.5542 13.0245 16.3744 13.3409 16.2811C13.6572 16.1878 13.9947 16.1848 14.3128 16.2725C14.6308 16.3602 14.916 16.5349 15.1342 16.7756C15.3524 17.0164 15.4943 17.3129 15.5429 17.6298C15.5915 17.9466 15.5448 18.2704 15.4084 18.5621C15.2718 18.8539 15.0514 19.1014 14.7734 19.2749C14.4953 19.4484 14.1716 19.5406 13.8409 19.5404ZM20.139 19.5404C19.666 19.4828 19.231 19.26 18.9157 18.9137C18.6004 18.5675 18.4264 18.1217 18.4264 17.6599C18.4264 17.1982 18.6004 16.7524 18.9157 16.4061C19.231 16.0599 19.666 15.8371 20.139 15.7795C20.3791 15.7926 20.614 15.8519 20.8302 15.9539C21.0464 16.0559 21.2395 16.1986 21.3981 16.3736C21.5568 16.5487 21.6779 16.7526 21.7543 16.9734C21.8307 17.1943 21.8611 17.4276 21.8434 17.6599C21.8728 18.1278 21.7102 18.5879 21.3909 18.9401C21.0717 19.2923 20.6217 19.5081 20.139 19.5404Z" fill="white"/>
</g>
<defs>
<clipPath id="clip0_145_13275">
<rect width="32" height="32" fill="white" transform="translate(0.984375 0.953125)"/>
</clipPath>
</defs>
</svg>
