<svg width="74" height="70" viewBox="0 0 74 70" fill="none" xmlns="http://www.w3.org/2000/svg">
<g opacity="0.5">
<path d="M36.9046 48.3954L37 48.4908L37.0954 48.3954L46.3538 39.1371L46.3933 39.0975V39.0417V39.0149V38.9882V38.9614V38.9346V38.9077V38.8808V38.8539V38.8269V38.8V38.7729V38.7459V38.7188V38.6917V38.6646V38.6374V38.6102V38.583V38.5557V38.5284V38.5011V38.4737V38.4463V38.4189V38.3915V38.364V38.3365V38.3089V38.2814V38.2538V38.2262V38.1985V38.1708V38.1431V38.1154V38.0876V38.0598V38.032V38.0041V37.9763V37.9483V37.9204V37.8924V37.8645V37.8364V37.8084V37.7803V37.7522V37.7241V37.6959V37.6678V37.6395V37.6113V37.5831V37.5548V37.5265V37.4981V37.4698V37.4414V37.413V37.3845V37.3561V37.3276V37.299V37.2705V37.2419V37.2134V37.1847V37.1561V37.1274V37.0988V37.07V37.0413V37.0126V36.9838V36.955V36.9261V36.8973V36.8684V36.8395V36.8106V36.7817V36.7527V36.7237V36.6947V36.6657V36.6366V36.6075V36.5785V36.5493V36.5202V36.491V36.4619V36.4326V36.4034V36.3742V36.3449V36.3156V36.2863V36.257V36.2276V36.1983V36.1689V36.1395V36.1101V36.0806V36.0511V36.0217V35.9922V35.9626V35.9331V35.9035V35.874V35.8444V35.8147V35.7851V35.7554V35.7258V35.6961V35.6664V35.6367V35.6069V35.5772V35.5474V35.5176V35.4878V35.4579V35.4281V35.3982V35.3684V35.3385V35.3086V35.2786V35.2487V35.2187V35.1888V35.1588V35.1288V35.0988V35.0687V35.0387V35.0086V34.9785V34.9484V34.9183V34.8882V34.8581V34.8279V34.7977V34.7676V34.7374V34.7072V34.6769V34.6467V34.6165V34.5862V34.5559V34.5256V34.4953V34.465V34.4347V34.4044V34.374V34.3437V34.3133V34.2829V34.2525V34.2221V34.1917V34.1612V34.1308V34.1003V34.0699V34.0394V34.0089V33.9784V33.9479V33.9174V33.8869V33.8563V33.8258V33.7952V33.7647V33.7341V33.7035V33.6729V33.6423V33.6117V33.5811V33.5504V33.5198V33.4892V33.4585V33.4278V33.3972V33.3665V33.3358V33.3051V33.2744V33.2437V33.213V33.1822V33.1515V33.1208V33.09V33.0593V33.0285V32.9977V32.967V32.9362V32.9054V32.8746V32.8438V32.813V32.7822V32.7514V32.7206V32.6897V32.6589V32.6281V32.5972V32.5664V32.5355V32.5047V32.4738V32.443V32.4121V32.3812V32.3504V32.3195V32.2886V32.2577V32.2268V32.1959V32.1651V32.1342V32.1033V32.0724V32.0415V32.0105V31.9796V31.9487V31.9178V31.8869V31.856V31.8251V31.7942V31.7632V31.7323V31.7014V31.6705V31.6395V31.6086V31.5777V31.5468V31.5158V31.4849V31.454V31.4231V31.3921V31.3612V31.3303V31.2994V31.2684V31.2375V31.2066V31.1757V31.1447V31.1138V31.0829V31.052V31.0211V30.9902V30.9593V30.9284V30.8974V30.8665V30.8356V30.8047V30.7739V30.743V30.7121V30.6812V30.6503V30.6194V30.5885V30.5577V30.5268V30.4959V30.4651V30.4342V30.4034V30.3725V30.3417V30.3108V30.28V30.2492V30.2184V30.1875V30.1567V30.1259V30.0951V30.0643V30.0335V30.0028V29.972V29.9412V29.9104V29.8797V29.8489V29.8182V29.7874V29.7567V29.726V29.6953V29.6646V29.6339V29.6032V29.5725V29.5418V29.5111V29.4805V29.4498V29.4192V29.3885V29.3579V29.3273V29.2967V29.2661V29.2355V29.2049V29.1743V29.1438V29.1132V29.0827V29.0521V29.0216V28.9911V28.9606V28.9301V28.8996V28.8691V28.8387V28.8082V28.7778V28.7473V28.7169V28.6865V28.6561V28.6258V28.5954V28.565V28.5347V28.5043V28.474V28.4437V28.4134V28.3831V28.3529V28.3226V28.2924V28.2621V28.2319V28.2017V28.1715V28.1413V28.1112V28.081V28.0509V28.0208V27.9907V27.9606V27.9305V27.9004V27.8704V27.8404V27.8104V27.7804V27.7504V27.7204V27.6904V27.6605V27.6306V27.6007V27.5708V27.5409V27.5111V27.4812V27.4514V27.4216V27.3918V27.362V27.3323V27.3025V27.2728V27.2431V27.2134V27.1838V27.1541V27.1245V27.0949V27.0653V27.0357V27.0062V26.9766V26.9471V26.9176V26.8881V26.8587V26.8292V26.7998V26.7704V26.741V26.7116V26.6823V26.653V26.6237V26.5944V26.5651V26.5359V26.5067V26.4775V26.4483V26.4191V26.39V26.3609V26.3318V26.3027V26.2737V26.2447V26.2157V26.1867V26.1577V26.1288V26.0999V26.071V26.0421V26.0133V25.9845V25.9557V25.9269V25.8981V25.8694V25.8407V25.812V25.7834V25.7547V25.7261V25.6975V25.669V25.6405V25.6119V25.5835V25.555V25.5266V25.4982V25.4698V25.4414V25.4131V25.3848V25.3565V25.3283V25.3V25.2718V25.2437V25.2155V25.1874V25.1593V25.1312V25.1032V25.0752V25.0472V25.0192V24.9913V24.9634V24.9355V24.9077V24.8799V24.8521V24.8243V24.7966V24.7689V24.7412V24.7136V24.6859V24.6584V24.6308V24.6033V24.5758V24.5483V24.5209V24.4935V24.4661V24.4387V24.4114V24.3841V24.3569V24.3296V24.3024V24.2753V24.2481V24.221V24.194V24.1669V24.1399V24.113V24.086V24.0591V24.0322V24.0054V23.9786V23.9518V23.925V23.5992L46.1629 23.8296L43.2879 26.7045L43.2484 26.7441V26.8V37.7941L37 44.0425L30.7516 37.7941V26.8V26.7441L30.7121 26.7045L27.8371 23.8296L27.6067 23.5992V23.925V23.9517V23.9785V24.0053V24.0321V24.059V24.0859V24.1128V24.1397V24.1667V24.1937V24.2208V24.2479V24.275V24.3021V24.3293V24.3565V24.3837V24.411V24.4383V24.4656V24.493V24.5203V24.5478V24.5752V24.6027V24.6302V24.6577V24.6853V24.7129V24.7405V24.7682V24.7958V24.8236V24.8513V24.8791V24.9069V24.9347V24.9625V24.9904V25.0183V25.0463V25.0742V25.1022V25.1302V25.1583V25.1864V25.2145V25.2426V25.2707V25.2989V25.3271V25.3554V25.3836V25.4119V25.4402V25.4685V25.4969V25.5253V25.5537V25.5822V25.6106V25.6391V25.6676V25.6962V25.7247V25.7533V25.7819V25.8106V25.8392V25.8679V25.8966V25.9254V25.9541V25.9829V26.0117V26.0405V26.0694V26.0982V26.1271V26.1561V26.185V26.214V26.243V26.272V26.301V26.33V26.3591V26.3882V26.4173V26.4465V26.4756V26.5048V26.534V26.5632V26.5925V26.6218V26.651V26.6804V26.7097V26.739V26.7684V26.7978V26.8272V26.8566V26.8861V26.9155V26.945V26.9745V27.004V27.0336V27.0631V27.0927V27.1223V27.1519V27.1816V27.2112V27.2409V27.2706V27.3003V27.33V27.3598V27.3895V27.4193V27.4491V27.4789V27.5087V27.5386V27.5684V27.5983V27.6282V27.6581V27.688V27.718V27.7479V27.7779V27.8079V27.8379V27.8679V27.898V27.928V27.9581V27.9881V28.0182V28.0484V28.0785V28.1086V28.1388V28.1689V28.1991V28.2293V28.2595V28.2897V28.32V28.3502V28.3805V28.4107V28.441V28.4713V28.5016V28.532V28.5623V28.5927V28.623V28.6534V28.6838V28.7142V28.7446V28.775V28.8054V28.8359V28.8663V28.8968V28.9273V28.9577V28.9882V29.0188V29.0493V29.0798V29.1103V29.1409V29.1714V29.202V29.2326V29.2632V29.2938V29.3244V29.355V29.3856V29.4162V29.4469V29.4775V29.5082V29.5388V29.5695V29.6002V29.6309V29.6616V29.6923V29.723V29.7537V29.7844V29.8152V29.8459V29.8767V29.9074V29.9382V29.9689V29.9997V30.0305V30.0613V30.0921V30.1229V30.1537V30.1845V30.2153V30.2461V30.2769V30.3078V30.3386V30.3694V30.4003V30.4311V30.462V30.4928V30.5237V30.5546V30.5854V30.6163V30.6472V30.6781V30.7089V30.7398V30.7707V30.8016V30.8325V30.8634V30.8943V30.9252V30.9561V30.987V31.0179V31.0489V31.0798V31.1107V31.1416V31.1725V31.2034V31.2344V31.2653V31.2962V31.3271V31.3581V31.389V31.4199V31.4508V31.4818V31.5127V31.5436V31.5745V31.6055V31.6364V31.6673V31.6982V31.7292V31.7601V31.791V31.8219V31.8528V31.8838V31.9147V31.9456V31.9765V32.0074V32.0383V32.0692V32.1001V32.131V32.1619V32.1928V32.2237V32.2546V32.2855V32.3164V32.3472V32.3781V32.409V32.4399V32.4707V32.5016V32.5324V32.5633V32.5941V32.625V32.6558V32.6867V32.7175V32.7483V32.7791V32.8099V32.8407V32.8715V32.9023V32.9331V32.9639V32.9947V33.0255V33.0562V33.087V33.1177V33.1485V33.1792V33.21V33.2407V33.2714V33.3021V33.3328V33.3635V33.3942V33.4249V33.4555V33.4862V33.5169V33.5475V33.5781V33.6088V33.6394V33.67V33.7006V33.7312V33.7618V33.7924V33.8229V33.8535V33.884V33.9146V33.9451V33.9756V34.0061V34.0366V34.0671V34.0975V34.128V34.1585V34.1889V34.2193V34.2497V34.2801V34.3105V34.3409V34.3713V34.4016V34.432V34.4623V34.4926V34.523V34.5533V34.5835V34.6138V34.6441V34.6743V34.7045V34.7348V34.765V34.7952V34.8253V34.8555V34.8856V34.9158V34.9459V34.976V35.0061V35.0362V35.0662V35.0963V35.1263V35.1563V35.1863V35.2163V35.2463V35.2762V35.3062V35.3361V35.366V35.3959V35.4258V35.4556V35.4854V35.5153V35.5451V35.5749V35.6046V35.6344V35.6641V35.6939V35.7236V35.7532V35.7829V35.8126V35.8422V35.8718V35.9014V35.931V35.9605V35.9901V36.0196V36.0491V36.0786V36.108V36.1375V36.1669V36.1963V36.2257V36.255V36.2844V36.3137V36.343V36.3723V36.4015V36.4308V36.46V36.4892V36.5184V36.5475V36.5767V36.6058V36.6349V36.6639V36.693V36.722V36.751V36.78V36.8089V36.8379V36.8668V36.8957V36.9246V36.9534V36.9822V37.011V37.0398V37.0685V37.0973V37.126V37.1547V37.1833V37.2119V37.2405V37.2691V37.2977V37.3262V37.3547V37.3832V37.4117V37.4401V37.4685V37.4969V37.5252V37.5536V37.5819V37.6102V37.6384V37.6666V37.6948V37.723V37.7512V37.7793V37.8074V37.8354V37.8635V37.8915V37.9195V37.9474V37.9754V38.0033V38.0311V38.059V38.0868V38.1146V38.1424V38.1701V38.1978V38.2255V38.2531V38.2807V38.3083V38.3359V38.3634V38.3909V38.4184V38.4458V38.4732V38.5006V38.5279V38.5553V38.5825V38.6098V38.637V38.6642V38.6914V38.7185V38.7456V38.7727V38.7997V38.8267V38.8537V38.8807V38.9076V38.9345V38.9613V38.9881V39.0149V39.0417V39.0975L27.6462 39.1371L36.9046 48.3954ZM36.9046 29.2246L37 29.32L37.0954 29.2246L46.3142 20.0058H48.99V40.1733L38.9338 50.2296L38.8383 50.325L38.9338 50.4204L40.9671 52.4538L41.0625 52.5492L41.1579 52.4538L52.0954 41.5163L52.1349 41.4767V41.4208V17V16.8651H52H45.0666H45.0107L44.9712 16.9046L37 24.8758L29.0287 16.9046L28.9892 16.8651H28.9333H22H21.8651V17V41.4208V41.4767L21.9046 41.5163L32.8421 52.4538L32.9375 52.5492L33.0329 52.4538L35.0662 50.4204L35.1617 50.325L35.0662 50.2296L25.0099 40.1733V20.0058H27.6858L36.9046 29.2246Z" fill="white" stroke="white" stroke-width="0.269896"/>
</g>
</svg>
