<svg width="33" height="33" viewBox="0 0 33 33" fill="none" xmlns="http://www.w3.org/2000/svg">
<g clip-path="url(#clip0_145_13286)">
<path d="M23.0307 13.382C23.0413 13.5356 23.0413 13.6906 23.0413 13.8456C23.0413 18.5918 19.4286 24.064 12.8228 24.064C10.8698 24.0668 8.95729 23.5068 7.31421 22.4511C7.59741 22.4849 7.88239 22.5019 8.1676 22.5023C9.78585 22.5047 11.3578 21.9621 12.6301 20.962C11.8806 20.9482 11.1541 20.7004 10.5524 20.2532C9.95083 19.8059 9.50408 19.1818 9.27486 18.468C9.81288 18.572 10.3676 18.5511 10.8963 18.4069C10.0836 18.2426 9.35273 17.8024 8.82751 17.1608C8.30236 16.5193 8.01519 15.7159 8.01471 14.8868V14.8412C8.51421 15.1193 9.0732 15.2734 9.64464 15.2907C8.8844 14.7828 8.34621 14.0041 8.13975 13.1135C7.93323 12.2228 8.07391 11.2868 8.53311 10.4962C9.4348 11.6056 10.5598 12.5131 11.8349 13.1596C13.1101 13.806 14.5069 14.1772 15.9348 14.2488C15.7562 13.479 15.8363 12.6718 16.1627 11.952C16.4891 11.2322 17.0436 10.6401 17.7403 10.2672C18.4371 9.89422 19.2374 9.76137 20.0173 9.88901C20.7973 10.0167 21.5134 10.3978 22.0549 10.9733C22.859 10.8147 23.6301 10.5198 24.3349 10.1015C24.0669 10.9331 23.5059 11.639 22.7562 12.0877C23.4679 12.0036 24.1631 11.8132 24.8185 11.5231C24.3374 12.2437 23.732 12.8731 23.0307 13.382Z" fill="white"/>
</g>
<defs>
<clipPath id="clip0_145_13286">
<rect width="32" height="32" fill="white" transform="translate(0.203125 0.953125)"/>
</clipPath>
</defs>
</svg>
